<?xml version="1.0" standalone="no"?>
<!DOCTYPE svg PUBLIC "-//W3C//DTD SVG 20010904//EN"
 "http://www.w3.org/TR/2001/REC-SVG-20010904/DTD/svg10.dtd">
<svg version="1.0" xmlns="http://www.w3.org/2000/svg"
 width="667.000000pt" height="667.000000pt" viewBox="0 0 667.000000 667.000000"
 preserveAspectRatio="xMidYMid meet">
<metadata>
Created by potrace 1.11, written by Peter Selinger 2001-2013
</metadata>
<g transform="translate(0.000000,667.000000) scale(0.100000,-0.100000)"
fill="#000000" stroke="none">
<path d="M1649 4908 c0 -13 0 -380 -1 -815 l0 -793 -32 0 c-17 -1 -388 -1
-823 -1 l-793 0 0 -785 0 -784 825 0 825 0 2 762 3 763 833 0 832 0 0 -763 0
-762 838 2 837 3 0 758 c0 498 3 757 10 758 5 1 377 3 825 4 448 1 820 3 825
4 7 1 10 284 10 834 l0 832 -837 3 -837 2 0 -811 c0 -446 -2 -813 -4 -816 -4
-3 -1388 -6 -1623 -4 l-41 1 -1 793 c0 435 -1 802 -1 815 l-1 22 -835 0 -835
0 -1 -22z"/>
</g>
</svg>
